<svg width="32" height="32" viewBox="0 0 32 32" fill="none" xmlns="http://www.w3.org/2000/svg">
<rect x="4" y="8" width="24" height="16" rx="3" fill="white"/>
<path d="M4 11C4 9.34315 5.34315 8 7 8H25C26.6569 8 28 9.34315 28 11V13H4V11Z" fill="#FF8383"/>
<rect x="25" y="16" width="6" height="2" rx="1" fill="#F30808"/>
<path d="M22.6509 10.3388L23.7193 11.2429C24.1409 11.5996 24.1934 12.2306 23.8367 12.6522L19.4372 17.8513C19.0805 18.2729 18.4495 18.3254 18.0279 17.9687L17.7229 17.7106C17.3013 17.3539 17.2488 16.7229 17.6055 16.3013L22.6509 10.3388Z" fill="#F30808"/>
<path d="M23.7143 11.2462C24.133 11.6064 24.1805 12.2377 23.8204 12.6565L22.876 13.7545L16.9526 8.66026C16.5339 8.30015 16.4864 7.66877 16.8465 7.25004L17.1388 6.91013C17.4989 6.4914 18.1303 6.44389 18.549 6.804L23.7143 11.2462Z" fill="#F30808"/>
</svg>
