<svg width="24" height="24" viewBox="0 0 24 24" fill="none" xmlns="http://www.w3.org/2000/svg">
<path d="M20.2 2.75H17.8C17.083 2.75 16.5 3.333 16.5 4.05V6.45C16.5 7.167 17.083 7.75 17.8 7.75H20.2C20.917 7.75 21.5 7.167 21.5 6.45V4.05C21.5 3.333 20.917 2.75 20.2 2.75ZM20.5 6.45C20.5 6.6155 20.3655 6.75 20.2 6.75H17.8C17.6345 6.75 17.5 6.6155 17.5 6.45V4.05C17.5 3.8845 17.6345 3.75 17.8 3.75H20.2C20.3655 3.75 20.5 3.8845 20.5 4.05V6.45Z" fill="black"/>
<path d="M18.9 0.25H5.1C2.288 0.25 0 2.5445 0 5.3655V8.75V9.75V18.635C0 21.4555 2.288 23.75 5.1 23.75H18.9C21.712 23.75 24 21.4555 24 18.635V9.75V8.75V5.3655C24 2.5445 21.712 0.25 18.9 0.25ZM23 18.635C23 20.904 21.1605 22.75 18.9 22.75H5.1C2.839 22.75 1 20.904 1 18.635V9.75H7.1105C5.81 11.0215 5 12.792 5 14.75C5 18.61 8.14 21.75 12 21.75C15.86 21.75 19 18.61 19 14.75C19 12.792 18.19 11.0215 16.8895 9.75H23V18.635ZM18 14.75C18 18.0585 15.3085 20.75 12 20.75C8.6915 20.75 6 18.0585 6 14.75C6 11.4415 8.6915 8.75 12 8.75C15.3085 8.75 18 11.4415 18 14.75ZM15.587 8.75C14.5365 8.1195 13.312 7.75 12 7.75C10.688 7.75 9.4635 8.1195 8.413 8.75H1V5.3655C1 3.096 2.8395 1.25 5.1 1.25H18.9C21.1605 1.25 23 3.096 23 5.3655V8.75H15.587Z" fill="black"/>
<path d="M7.5 14.75C7.5 17.231 9.5185 19.25 12 19.25C14.4815 19.25 16.5 17.231 16.5 14.75C16.5 12.269 14.4815 10.25 12 10.25C9.5185 10.25 7.5 12.269 7.5 14.75ZM15.5 14.75C15.5 16.68 13.9295 18.25 12 18.25C10.0705 18.25 8.5 16.68 8.5 14.75C8.5 12.82 10.0705 11.25 12 11.25C13.9295 11.25 15.5 12.82 15.5 14.75Z" fill="black"/>
</svg>
