<svg width="24" height="14" viewBox="0 0 24 14" fill="none" xmlns="http://www.w3.org/2000/svg">
<path d="M21.3625 9.618C21.3625 9.618 23.3029 11.5344 23.7829 12.4212C23.7922 12.434 23.7995 12.4482 23.8045 12.4632C24.0001 12.7908 24.0481 13.0476 23.9521 13.2372C23.7901 13.5504 23.2417 13.7076 23.0557 13.7208H19.6261C19.3873 13.7208 18.8905 13.6584 18.2857 13.2408C17.8237 12.918 17.3641 12.3864 16.9189 11.8668C16.2541 11.0952 15.6793 10.4256 15.0973 10.4256C15.0238 10.4254 14.9508 10.4376 14.8813 10.4616C14.4409 10.6008 13.8817 11.2284 13.8817 12.9C13.8817 13.4232 13.4689 13.7208 13.1797 13.7208H11.6089C11.0737 13.7208 8.28731 13.5336 5.81651 10.9284C2.78891 7.7388 0.0697081 1.3404 0.0433081 1.284C-0.125892 0.87 0.229308 0.6444 0.613308 0.6444H4.07651C4.54091 0.6444 4.69211 0.9252 4.79771 1.1772C4.92011 1.4664 5.37371 2.6232 6.11771 3.9228C7.32251 6.0372 8.06291 6.8976 8.65451 6.8976C8.76566 6.89793 8.87492 6.86895 8.97131 6.8136C9.74411 6.3888 9.60011 3.6288 9.56411 3.06C9.56411 2.9496 9.56291 1.8276 9.16691 1.2852C8.88371 0.8964 8.40131 0.7452 8.10971 0.69C8.18771 0.5772 8.35331 0.4044 8.56571 0.3024C9.09491 0.0383998 10.0513 0 11.0005 0H11.5273C12.5569 0.0144 12.8233 0.0803999 13.1977 0.1752C13.9513 0.3552 13.9657 0.8436 13.8997 2.5068C13.8805 2.982 13.8601 3.5172 13.8601 4.1472C13.8601 4.2816 13.8541 4.4316 13.8541 4.584C13.8313 5.4372 13.8013 6.3984 14.4037 6.7932C14.4818 6.84187 14.5721 6.86765 14.6641 6.8676C14.8729 6.8676 15.4981 6.8676 17.1937 3.9576C17.9377 2.6724 18.5137 1.1568 18.5533 1.0428C18.5869 0.9792 18.6877 0.8004 18.8101 0.7284C18.8972 0.682074 18.9947 0.658933 19.0933 0.6612H23.1673C23.6113 0.6612 23.9125 0.7284 23.9713 0.8964C24.0697 1.1688 23.9521 2.0004 22.0921 4.5156C21.7789 4.9344 21.5041 5.2968 21.2629 5.6136C19.5769 7.8264 19.5769 7.938 21.3625 9.618Z" fill="black"/>
</svg>
