<?xml version="1.0" encoding="UTF-8"?>
<svg xmlns="http://www.w3.org/2000/svg" xmlns:xlink="http://www.w3.org/1999/xlink" viewBox="0 0 25 25" width="25px" height="25px">
<g id="surface38633700">
<path style=" stroke:none;fill-rule:nonzero;fill:rgb(100%,100%,100%);fill-opacity:1;" d="M 12.5 4 C 17.195312 4 21 7.804688 21 12.5 C 21 17.195312 17.195312 21 12.5 21 C 7.804688 21 4 17.195312 4 12.5 C 4 7.804688 7.804688 4 12.5 4 Z M 15.433594 15.964844 C 15.589844 15.484375 16.320312 10.703125 16.410156 9.761719 C 16.4375 9.476562 16.347656 9.289062 16.171875 9.203125 C 15.957031 9.101562 15.640625 9.152344 15.273438 9.285156 C 14.773438 9.464844 8.335938 12.199219 7.964844 12.355469 C 7.613281 12.507812 7.277344 12.667969 7.277344 12.90625 C 7.277344 13.074219 7.378906 13.164062 7.648438 13.261719 C 7.933594 13.363281 8.644531 13.578125 9.066406 13.695312 C 9.472656 13.808594 9.933594 13.710938 10.191406 13.550781 C 10.464844 13.378906 13.632812 11.261719 13.859375 11.078125 C 14.085938 10.890625 14.265625 11.128906 14.082031 11.316406 C 13.894531 11.5 11.722656 13.609375 11.4375 13.902344 C 11.089844 14.253906 11.335938 14.621094 11.570312 14.769531 C 11.835938 14.9375 13.75 16.222656 14.039062 16.429688 C 14.328125 16.636719 14.621094 16.726562 14.890625 16.726562 C 15.15625 16.726562 15.296875 16.375 15.433594 15.964844 Z M 15.433594 15.964844 "/>
</g>
</svg>
