<svg width="100" height="100" viewBox="0 0 100 100" fill="none" xmlns="http://www.w3.org/2000/svg">
<path d="M24.44 74V18H47.72C53.64 18 58.28 19.2267 61.64 21.68C65.0533 24.08 66.76 27.6267 66.76 32.32C66.76 36.96 65.1333 40.48 61.88 42.88C58.6267 45.2267 54.36 46.4 49.08 46.4L50.44 44.4C56.68 44.4 61.4267 45.6267 64.68 48.08C67.9333 50.5333 69.56 54.1333 69.56 58.88C69.56 63.68 67.8533 67.4133 64.44 70.08C61.08 72.6933 56.0133 74 49.24 74H24.44ZM30.28 69.28H49.24C53.9867 69.28 57.5867 68.4 60.04 66.64C62.4933 64.88 63.72 62.16 63.72 58.48C63.72 54.8533 62.4933 52.1867 60.04 50.48C57.5867 48.7733 53.9867 47.92 49.24 47.92H30.28V69.28ZM30.28 43.36H47.4C51.72 43.36 55.0267 42.5067 57.32 40.8C59.6667 39.04 60.84 36.4533 60.84 33.04C60.84 29.6267 59.6667 27.0667 57.32 25.36C55.0267 23.6 51.72 22.72 47.4 22.72H30.28V43.36Z" fill="white"/>
<path d="M36.44 84V28H59.72C65.64 28 70.28 29.2267 73.64 31.68C77.0533 34.08 78.76 37.6267 78.76 42.32C78.76 46.96 77.1333 50.48 73.88 52.88C70.6267 55.2267 66.36 56.4 61.08 56.4L62.44 54.4C68.68 54.4 73.4267 55.6267 76.68 58.08C79.9333 60.5333 81.56 64.1333 81.56 68.88C81.56 73.68 79.8533 77.4133 76.44 80.08C73.08 82.6933 68.0133 84 61.24 84H36.44ZM42.28 79.28H61.24C65.9867 79.28 69.5867 78.4 72.04 76.64C74.4933 74.88 75.72 72.16 75.72 68.48C75.72 64.8533 74.4933 62.1867 72.04 60.48C69.5867 58.7733 65.9867 57.92 61.24 57.92H42.28V79.28ZM42.28 53.36H59.4C63.72 53.36 67.0267 52.5067 69.32 50.8C71.6667 49.04 72.84 46.4533 72.84 43.04C72.84 39.6267 71.6667 37.0667 69.32 35.36C67.0267 33.6 63.72 32.72 59.4 32.72H42.28V53.36Z" fill="white"/>
</svg>
