<svg width="102" height="100" viewBox="0 0 102 100" fill="none" xmlns="http://www.w3.org/2000/svg">
<rect x="1.5" y="0.5" width="99" height="99" fill="#0C0C0C" stroke="white"/>
<rect x="1" y="35" width="100" height="30" fill="#0C0C0C"/>
<path d="M0.938 49V37.1H5.392C6.40067 37.1 7.26767 37.2643 7.993 37.593C8.71833 37.9103 9.27367 38.375 9.659 38.987C10.0557 39.5877 10.254 40.3187 10.254 41.18C10.254 42.0187 10.0557 42.744 9.659 43.356C9.27367 43.9567 8.71833 44.4213 7.993 44.75C7.26767 45.0673 6.40067 45.226 5.392 45.226H1.635L2.196 44.648V49H0.938ZM9.064 49L6.004 44.682H7.364L10.441 49H9.064ZM2.196 44.75L1.635 44.155H5.358C6.548 44.155 7.449 43.8943 8.061 43.373C8.68433 42.8517 8.996 42.1207 8.996 41.18C8.996 40.228 8.68433 39.4913 8.061 38.97C7.449 38.4487 6.548 38.188 5.358 38.188H1.635L2.196 37.593V44.75ZM11.3192 49L16.7592 37.1H18.0002L23.4402 49H22.1142L17.1162 37.831H17.6262L12.6282 49H11.3192ZM13.4612 45.821L13.8352 44.801H20.7542L21.1282 45.821H13.4612ZM27.123 49V38.188H22.941V37.1H32.563V38.188H28.381V49H27.123ZM34.5728 49V37.1H35.6098L43.8208 47.436H43.2768V37.1H44.5178V49H43.4808L35.2868 38.664H35.8308V49H34.5728ZM48.4019 49V37.1H49.6599V49H48.4019ZM54.6198 46.042L54.5688 44.512L61.7768 37.1H63.2218L57.9688 42.608L57.2548 43.373L54.6198 46.042ZM53.5318 49V37.1H54.7898V49H53.5318ZM62.0828 49L56.9488 43.084L57.7988 42.166L63.5788 49H62.0828ZM70.388 49.102C69.4927 49.102 68.6597 48.9547 67.889 48.66C67.1297 48.354 66.4667 47.929 65.9 47.385C65.3447 46.8297 64.9084 46.1893 64.591 45.464C64.285 44.7273 64.132 43.9227 64.132 43.05C64.132 42.1773 64.285 41.3783 64.591 40.653C64.9084 39.9163 65.3447 39.276 65.9 38.732C66.4667 38.1767 67.1297 37.7517 67.889 37.457C68.6484 37.151 69.4814 36.998 70.388 36.998C71.2834 36.998 72.1107 37.151 72.87 37.457C73.6294 37.7517 74.2867 38.171 74.842 38.715C75.4087 39.259 75.845 39.8993 76.151 40.636C76.4684 41.3727 76.627 42.1773 76.627 43.05C76.627 43.9227 76.4684 44.7273 76.151 45.464C75.845 46.2007 75.4087 46.841 74.842 47.385C74.2867 47.929 73.6294 48.354 72.87 48.66C72.1107 48.9547 71.2834 49.102 70.388 49.102ZM70.388 47.98C71.102 47.98 71.7594 47.861 72.36 47.623C72.972 47.3737 73.499 47.028 73.941 46.586C74.3944 46.1327 74.7457 45.6113 74.995 45.022C75.2444 44.4213 75.369 43.764 75.369 43.05C75.369 42.336 75.2444 41.6843 74.995 41.095C74.7457 40.4943 74.3944 39.973 73.941 39.531C73.499 39.0777 72.972 38.732 72.36 38.494C71.7594 38.2447 71.102 38.12 70.388 38.12C69.674 38.12 69.011 38.2447 68.399 38.494C67.787 38.732 67.2544 39.0777 66.801 39.531C66.359 39.973 66.0077 40.4943 65.747 41.095C65.4977 41.6843 65.373 42.336 65.373 43.05C65.373 43.7527 65.4977 44.4043 65.747 45.005C66.0077 45.6057 66.359 46.1327 66.801 46.586C67.2544 47.028 67.787 47.3737 68.399 47.623C69.011 47.861 69.674 47.98 70.388 47.98ZM82.4812 49L77.2112 37.1H78.5712L83.5012 48.303H82.7532L87.7172 37.1H88.9922L83.7222 49H82.4812ZM94.3513 49L89.0813 37.1H90.4413L95.3713 48.303H94.6233L99.5873 37.1H100.862L95.5923 49H94.3513Z" fill="white"/>
<path d="M3.92306 63.048C3.33906 63.048 2.81106 62.916 2.33906 62.652C1.87506 62.38 1.50706 62.004 1.23506 61.524C0.963063 61.044 0.827063 60.492 0.827063 59.868C0.827063 59.236 0.963063 58.684 1.23506 58.212C1.50706 57.732 1.87506 57.36 2.33906 57.096C2.81106 56.824 3.33906 56.688 3.92306 56.688C4.47506 56.688 4.97106 56.816 5.41106 57.072C5.85906 57.328 6.21106 57.692 6.46706 58.164C6.73106 58.636 6.86306 59.204 6.86306 59.868C6.86306 60.516 6.73506 61.08 6.47906 61.56C6.22306 62.04 5.87106 62.408 5.42306 62.664C4.98306 62.92 4.48306 63.048 3.92306 63.048ZM3.95906 62.508C4.43906 62.508 4.86706 62.4 5.24306 62.184C5.62706 61.96 5.92706 61.648 6.14306 61.248C6.36706 60.848 6.47906 60.388 6.47906 59.868C6.47906 59.34 6.36706 58.88 6.14306 58.488C5.92706 58.088 5.62706 57.78 5.24306 57.564C4.86706 57.34 4.43906 57.228 3.95906 57.228C3.47906 57.228 3.04706 57.34 2.66306 57.564C2.28706 57.78 1.98706 58.088 1.76306 58.488C1.54706 58.88 1.43906 59.34 1.43906 59.868C1.43906 60.388 1.54706 60.848 1.76306 61.248C1.98706 61.648 2.28706 61.96 2.66306 62.184C3.04706 62.4 3.47906 62.508 3.95906 62.508ZM6.49106 63V60.948L6.59906 59.856L6.47906 58.764V54.096H7.07906V63H6.49106ZM14.3127 63.048C13.6807 63.048 13.1207 62.912 12.6327 62.64C12.1527 62.368 11.7727 61.992 11.4927 61.512C11.2207 61.032 11.0847 60.484 11.0847 59.868C11.0847 59.244 11.2127 58.696 11.4687 58.224C11.7327 57.744 12.0927 57.368 12.5487 57.096C13.0047 56.824 13.5167 56.688 14.0847 56.688C14.6527 56.688 15.1607 56.82 15.6087 57.084C16.0647 57.348 16.4207 57.72 16.6767 58.2C16.9407 58.672 17.0727 59.22 17.0727 59.844C17.0727 59.868 17.0687 59.896 17.0607 59.928C17.0607 59.952 17.0607 59.98 17.0607 60.012H11.5287V59.544H16.7367L16.4967 59.772C16.5047 59.284 16.4007 58.848 16.1847 58.464C15.9767 58.072 15.6927 57.768 15.3327 57.552C14.9727 57.328 14.5567 57.216 14.0847 57.216C13.6207 57.216 13.2047 57.328 12.8367 57.552C12.4767 57.768 12.1927 58.072 11.9847 58.464C11.7767 58.848 11.6727 59.288 11.6727 59.784V59.892C11.6727 60.404 11.7847 60.86 12.0087 61.26C12.2407 61.652 12.5567 61.96 12.9567 62.184C13.3567 62.4 13.8127 62.508 14.3247 62.508C14.7247 62.508 15.0967 62.436 15.4407 62.292C15.7927 62.148 16.0887 61.928 16.3287 61.632L16.6767 62.028C16.4047 62.364 16.0607 62.62 15.6447 62.796C15.2367 62.964 14.7927 63.048 14.3127 63.048ZM22.5557 63L19.7357 56.736H20.3717L23.0117 62.664H22.7237L25.3877 56.736H25.9997L23.1677 63H22.5557ZM31.8398 63.048C31.2078 63.048 30.6478 62.912 30.1598 62.64C29.6798 62.368 29.2998 61.992 29.0198 61.512C28.7478 61.032 28.6118 60.484 28.6118 59.868C28.6118 59.244 28.7398 58.696 28.9958 58.224C29.2598 57.744 29.6198 57.368 30.0758 57.096C30.5318 56.824 31.0438 56.688 31.6118 56.688C32.1798 56.688 32.6878 56.82 33.1358 57.084C33.5918 57.348 33.9478 57.72 34.2038 58.2C34.4678 58.672 34.5998 59.22 34.5998 59.844C34.5998 59.868 34.5958 59.896 34.5878 59.928C34.5878 59.952 34.5878 59.98 34.5878 60.012H29.0558V59.544H34.2638L34.0238 59.772C34.0318 59.284 33.9278 58.848 33.7118 58.464C33.5038 58.072 33.2198 57.768 32.8598 57.552C32.4998 57.328 32.0838 57.216 31.6118 57.216C31.1478 57.216 30.7318 57.328 30.3638 57.552C30.0038 57.768 29.7198 58.072 29.5118 58.464C29.3038 58.848 29.1998 59.288 29.1998 59.784V59.892C29.1998 60.404 29.3118 60.86 29.5358 61.26C29.7678 61.652 30.0838 61.96 30.4838 62.184C30.8838 62.4 31.3398 62.508 31.8518 62.508C32.2518 62.508 32.6238 62.436 32.9678 62.292C33.3198 62.148 33.6158 61.928 33.8558 61.632L34.2038 62.028C33.9318 62.364 33.5878 62.62 33.1718 62.796C32.7638 62.964 32.3198 63.048 31.8398 63.048ZM38.6159 63V54.096H39.2159V63H38.6159ZM46.3528 63.048C45.7528 63.048 45.2168 62.912 44.7448 62.64C44.2808 62.368 43.9088 61.992 43.6288 61.512C43.3568 61.032 43.2208 60.484 43.2208 59.868C43.2208 59.244 43.3568 58.696 43.6288 58.224C43.9088 57.744 44.2808 57.368 44.7448 57.096C45.2168 56.824 45.7528 56.688 46.3528 56.688C46.9528 56.688 47.4888 56.824 47.9608 57.096C48.4328 57.368 48.8048 57.744 49.0768 58.224C49.3488 58.696 49.4848 59.244 49.4848 59.868C49.4848 60.484 49.3488 61.032 49.0768 61.512C48.8048 61.992 48.4328 62.368 47.9608 62.64C47.4888 62.912 46.9528 63.048 46.3528 63.048ZM46.3528 62.508C46.8328 62.508 47.2648 62.4 47.6488 62.184C48.0328 61.96 48.3328 61.648 48.5488 61.248C48.7648 60.848 48.8728 60.388 48.8728 59.868C48.8728 59.34 48.7648 58.88 48.5488 58.488C48.3328 58.088 48.0328 57.78 47.6488 57.564C47.2648 57.34 46.8328 57.228 46.3528 57.228C45.8728 57.228 45.4408 57.34 45.0568 57.564C44.6808 57.78 44.3808 58.088 44.1568 58.488C43.9408 58.88 43.8328 59.34 43.8328 59.868C43.8328 60.388 43.9408 60.848 44.1568 61.248C44.3808 61.648 44.6808 61.96 45.0568 62.184C45.4408 62.4 45.8728 62.508 46.3528 62.508ZM56.6502 63.048C56.0982 63.048 55.5982 62.92 55.1502 62.664C54.7102 62.408 54.3582 62.044 54.0942 61.572C53.8382 61.092 53.7102 60.524 53.7102 59.868C53.7102 59.212 53.8382 58.648 54.0942 58.176C54.3582 57.696 54.7102 57.328 55.1502 57.072C55.5982 56.816 56.0982 56.688 56.6502 56.688C57.2422 56.688 57.7702 56.824 58.2342 57.096C58.7062 57.36 59.0742 57.732 59.3382 58.212C59.6102 58.692 59.7462 59.244 59.7462 59.868C59.7462 60.492 59.6102 61.044 59.3382 61.524C59.0742 62.004 58.7062 62.38 58.2342 62.652C57.7702 62.916 57.2422 63.048 56.6502 63.048ZM53.5062 65.328V56.736H54.0822V58.788L53.9862 59.88L54.1062 60.972V65.328H53.5062ZM56.6142 62.508C57.0942 62.508 57.5262 62.4 57.9102 62.184C58.2942 61.96 58.5942 61.648 58.8102 61.248C59.0342 60.848 59.1462 60.388 59.1462 59.868C59.1462 59.34 59.0342 58.88 58.8102 58.488C58.5942 58.088 58.2942 57.78 57.9102 57.564C57.5262 57.34 57.0942 57.228 56.6142 57.228C56.1342 57.228 55.7022 57.34 55.3182 57.564C54.9422 57.78 54.6422 58.088 54.4182 58.488C54.2022 58.88 54.0942 59.34 54.0942 59.868C54.0942 60.388 54.2022 60.848 54.4182 61.248C54.6422 61.648 54.9422 61.96 55.3182 62.184C55.7022 62.4 56.1342 62.508 56.6142 62.508ZM71.5639 56.688C72.0679 56.688 72.5039 56.788 72.8719 56.988C73.2479 57.18 73.5399 57.476 73.7479 57.876C73.9559 58.268 74.0599 58.756 74.0599 59.34V63H73.4599V59.388C73.4599 58.684 73.2879 58.148 72.9439 57.78C72.5999 57.412 72.1199 57.228 71.5039 57.228C71.0319 57.228 70.6239 57.328 70.2799 57.528C69.9359 57.728 69.6719 58.008 69.4879 58.368C69.3039 58.728 69.2119 59.16 69.2119 59.664V63H68.6119V59.388C68.6119 58.684 68.4399 58.148 68.0959 57.78C67.7519 57.412 67.2719 57.228 66.6559 57.228C66.1839 57.228 65.7759 57.328 65.4319 57.528C65.0879 57.728 64.8239 58.008 64.6399 58.368C64.4559 58.728 64.3639 59.16 64.3639 59.664V63H63.7639V56.736H64.3399V58.464L64.2559 58.272C64.4399 57.784 64.7479 57.4 65.1799 57.12C65.6119 56.832 66.1319 56.688 66.7399 56.688C67.3639 56.688 67.8879 56.848 68.3119 57.168C68.7439 57.48 69.0159 57.948 69.1279 58.572L68.9239 58.488C69.0919 57.952 69.4079 57.52 69.8719 57.192C70.3359 56.856 70.8999 56.688 71.5639 56.688ZM81.2413 63.048C80.6093 63.048 80.0493 62.912 79.5613 62.64C79.0813 62.368 78.7013 61.992 78.4213 61.512C78.1493 61.032 78.0133 60.484 78.0133 59.868C78.0133 59.244 78.1413 58.696 78.3973 58.224C78.6613 57.744 79.0213 57.368 79.4773 57.096C79.9333 56.824 80.4453 56.688 81.0133 56.688C81.5813 56.688 82.0893 56.82 82.5373 57.084C82.9933 57.348 83.3493 57.72 83.6053 58.2C83.8693 58.672 84.0013 59.22 84.0013 59.844C84.0013 59.868 83.9973 59.896 83.9893 59.928C83.9893 59.952 83.9893 59.98 83.9893 60.012H78.4573V59.544H83.6653L83.4253 59.772C83.4333 59.284 83.3293 58.848 83.1133 58.464C82.9053 58.072 82.6213 57.768 82.2613 57.552C81.9013 57.328 81.4853 57.216 81.0133 57.216C80.5493 57.216 80.1333 57.328 79.7653 57.552C79.4053 57.768 79.1213 58.072 78.9133 58.464C78.7053 58.848 78.6013 59.288 78.6013 59.784V59.892C78.6013 60.404 78.7133 60.86 78.9373 61.26C79.1693 61.652 79.4853 61.96 79.8853 62.184C80.2853 62.4 80.7413 62.508 81.2533 62.508C81.6533 62.508 82.0253 62.436 82.3693 62.292C82.7213 62.148 83.0173 61.928 83.2573 61.632L83.6053 62.028C83.3333 62.364 82.9893 62.62 82.5733 62.796C82.1653 62.964 81.7213 63.048 81.2413 63.048ZM91.0775 56.688C91.5895 56.688 92.0335 56.788 92.4095 56.988C92.7935 57.18 93.0895 57.476 93.2975 57.876C93.5135 58.268 93.6215 58.756 93.6215 59.34V63H93.0215V59.388C93.0215 58.684 92.8415 58.148 92.4815 57.78C92.1295 57.412 91.6335 57.228 90.9935 57.228C90.5055 57.228 90.0815 57.328 89.7215 57.528C89.3615 57.728 89.0855 58.008 88.8935 58.368C88.7095 58.728 88.6175 59.16 88.6175 59.664V63H88.0175V56.736H88.5935V58.476L88.5095 58.284C88.7015 57.788 89.0175 57.4 89.4575 57.12C89.8975 56.832 90.4375 56.688 91.0775 56.688ZM100.076 63.048C99.5237 63.048 99.0997 62.896 98.8037 62.592C98.5157 62.288 98.3717 61.872 98.3717 61.344V55.368H98.9717V61.284C98.9717 61.684 99.0717 61.992 99.2717 62.208C99.4717 62.424 99.7597 62.532 100.136 62.532C100.528 62.532 100.852 62.416 101.108 62.184L101.36 62.604C101.2 62.756 101.004 62.868 100.772 62.94C100.548 63.012 100.316 63.048 100.076 63.048ZM97.2197 57.252V56.736H100.964V57.252H97.2197Z" fill="white"/>
</svg>
