<svg width="102" height="100" viewBox="0 0 102 100" fill="none" xmlns="http://www.w3.org/2000/svg">
<rect x="2" y="1" width="98" height="98" fill="#0C0C0C" stroke="white" stroke-width="2"/>
<rect x="1" y="35" width="100" height="30" fill="#0C0C0C"/>
<path d="M0.929878 48V36.8H5.29788C6.27921 36.8 7.11655 36.9547 7.80988 37.264C8.50321 37.5733 9.03655 38.0213 9.40988 38.608C9.78321 39.1947 9.96988 39.8933 9.96988 40.704C9.96988 41.5147 9.78321 42.2133 9.40988 42.8C9.03655 43.376 8.50321 43.8187 7.80988 44.128C7.11655 44.4373 6.27921 44.592 5.29788 44.592H1.80988L2.52988 43.856V48H0.929878ZM8.41788 48L5.56988 43.936H7.28188L10.1619 48H8.41788ZM2.52988 44.016L1.80988 43.232H5.24988C6.27388 43.232 7.04721 43.0133 7.56988 42.576C8.10321 42.128 8.36988 41.504 8.36988 40.704C8.36988 39.904 8.10321 39.2853 7.56988 38.848C7.04721 38.4107 6.27388 38.192 5.24988 38.192H1.80988L2.52988 37.392V44.016ZM11.4429 48L16.5149 36.8H18.0989L23.1869 48H21.5069L16.9789 37.696H17.6189L13.0909 48H11.4429ZM13.6029 45.2L14.0349 43.92H20.3389L20.8029 45.2H13.6029ZM27.1031 48V38.192H23.2631V36.8H32.5271V38.192H28.6871V48H27.1031ZM34.8538 48V36.8H36.1658L43.5738 46H42.8858V36.8H44.4858V48H43.1738L35.7658 38.8H36.4538V48H34.8538ZM48.4221 48V36.8H50.0221V48H48.4221ZM55.3673 45.296L55.2873 43.344L61.6393 36.8H63.4633L58.5513 41.984L57.6553 42.976L55.3673 45.296ZM53.9593 48V36.8H55.5593V48H53.9593ZM61.8953 48L57.3033 42.656L58.3753 41.472L63.7673 48H61.8953ZM70.693 48.128C69.8397 48.128 69.045 47.984 68.309 47.696C67.5837 47.408 66.9543 47.008 66.421 46.496C65.8877 45.9733 65.4717 45.3653 65.173 44.672C64.8743 43.9787 64.725 43.2213 64.725 42.4C64.725 41.5787 64.8743 40.8213 65.173 40.128C65.4717 39.4347 65.8877 38.832 66.421 38.32C66.9543 37.7973 67.5837 37.392 68.309 37.104C69.0343 36.816 69.829 36.672 70.693 36.672C71.5463 36.672 72.3303 36.816 73.045 37.104C73.7703 37.3813 74.3997 37.7813 74.933 38.304C75.477 38.816 75.893 39.4187 76.181 40.112C76.4797 40.8053 76.629 41.568 76.629 42.4C76.629 43.232 76.4797 43.9947 76.181 44.688C75.893 45.3813 75.477 45.9893 74.933 46.512C74.3997 47.024 73.7703 47.424 73.045 47.712C72.3303 47.9893 71.5463 48.128 70.693 48.128ZM70.693 46.704C71.3117 46.704 71.8823 46.5973 72.405 46.384C72.9383 46.1707 73.397 45.872 73.781 45.488C74.1757 45.0933 74.4797 44.6347 74.693 44.112C74.917 43.5893 75.029 43.0187 75.029 42.4C75.029 41.7813 74.917 41.2107 74.693 40.688C74.4797 40.1653 74.1757 39.712 73.781 39.328C73.397 38.9333 72.9383 38.6293 72.405 38.416C71.8823 38.2027 71.3117 38.096 70.693 38.096C70.0637 38.096 69.4823 38.2027 68.949 38.416C68.4263 38.6293 67.9677 38.9333 67.573 39.328C67.1783 39.712 66.869 40.1653 66.645 40.688C66.4317 41.2107 66.325 41.7813 66.325 42.4C66.325 43.0187 66.4317 43.5893 66.645 44.112C66.869 44.6347 67.1783 45.0933 67.573 45.488C67.9677 45.872 68.4263 46.1707 68.949 46.384C69.4823 46.5973 70.0637 46.704 70.693 46.704ZM82.5468 48L77.6188 36.8H79.3468L83.8748 47.136H82.8828L87.4428 36.8H89.0428L84.1308 48H82.5468ZM94.5214 48L89.5934 36.8H91.3214L95.8494 47.136H94.8574L99.4174 36.8H101.017L96.1054 48H94.5214Z" fill="white"/>
<path d="M4.62848 63.07C3.92848 63.07 3.29848 62.9113 2.73848 62.594C2.18782 62.2767 1.75382 61.838 1.43648 61.278C1.11915 60.7087 0.960483 60.0553 0.960483 59.318C0.960483 58.5713 1.11915 57.918 1.43648 57.358C1.75382 56.798 2.18782 56.364 2.73848 56.056C3.29848 55.7387 3.92848 55.58 4.62848 55.58C5.27248 55.58 5.84648 55.7247 6.35048 56.014C6.86382 56.3033 7.26982 56.728 7.56848 57.288C7.87648 57.8387 8.03048 58.5153 8.03048 59.318C8.03048 60.1113 7.88115 60.788 7.58248 61.348C7.28382 61.908 6.87782 62.3373 6.36448 62.636C5.86048 62.9253 5.28182 63.07 4.62848 63.07ZM4.69848 62.188C5.22115 62.188 5.68782 62.0713 6.09848 61.838C6.51848 61.5953 6.84515 61.2593 7.07848 60.83C7.32115 60.3913 7.44248 59.8873 7.44248 59.318C7.44248 58.7393 7.32115 58.2353 7.07848 57.806C6.84515 57.3767 6.51848 57.0453 6.09848 56.812C5.68782 56.5693 5.22115 56.448 4.69848 56.448C4.18515 56.448 3.72315 56.5693 3.31248 56.812C2.90182 57.0453 2.57515 57.3767 2.33248 57.806C2.08982 58.2353 1.96848 58.7393 1.96848 59.318C1.96848 59.8873 2.08982 60.3913 2.33248 60.83C2.57515 61.2593 2.90182 61.5953 3.31248 61.838C3.72315 62.0713 4.18515 62.188 4.69848 62.188ZM7.47048 63V60.788L7.56848 59.304L7.42848 57.82V52.612H8.42248V63H7.47048ZM14.9708 63.07C14.2054 63.07 13.5334 62.9113 12.9548 62.594C12.3761 62.2673 11.9234 61.824 11.5968 61.264C11.2701 60.6947 11.1068 60.046 11.1068 59.318C11.1068 58.59 11.2608 57.946 11.5688 57.386C11.8861 56.826 12.3154 56.3873 12.8568 56.07C13.4074 55.7433 14.0234 55.58 14.7048 55.58C15.3954 55.58 16.0068 55.7387 16.5388 56.056C17.0801 56.364 17.5048 56.8027 17.8128 57.372C18.1208 57.932 18.2748 58.5807 18.2748 59.318C18.2748 59.3647 18.2701 59.416 18.2608 59.472C18.2608 59.5187 18.2608 59.57 18.2608 59.626H11.8628V58.884H17.7288L17.3368 59.178C17.3368 58.646 17.2201 58.1747 16.9868 57.764C16.7628 57.344 16.4548 57.0173 16.0628 56.784C15.6708 56.5507 15.2181 56.434 14.7048 56.434C14.2008 56.434 13.7481 56.5507 13.3468 56.784C12.9454 57.0173 12.6328 57.344 12.4088 57.764C12.1848 58.184 12.0728 58.6647 12.0728 59.206V59.36C12.0728 59.92 12.1941 60.4147 12.4368 60.844C12.6888 61.264 13.0341 61.5953 13.4728 61.838C13.9208 62.0713 14.4294 62.188 14.9988 62.188C15.4468 62.188 15.8621 62.1087 16.2448 61.95C16.6368 61.7913 16.9728 61.5487 17.2528 61.222L17.8128 61.866C17.4861 62.258 17.0754 62.5567 16.5808 62.762C16.0954 62.9673 15.5588 63.07 14.9708 63.07ZM22.7093 63L19.4473 55.65H20.4833L23.4793 62.468H22.9893L26.0273 55.65H27.0073L23.7313 63H22.7093ZM31.9821 63.07C31.2167 63.07 30.5447 62.9113 29.9661 62.594C29.3874 62.2673 28.9347 61.824 28.6081 61.264C28.2814 60.6947 28.1181 60.046 28.1181 59.318C28.1181 58.59 28.2721 57.946 28.5801 57.386C28.8974 56.826 29.3267 56.3873 29.8681 56.07C30.4187 55.7433 31.0347 55.58 31.7161 55.58C32.4067 55.58 33.0181 55.7387 33.5501 56.056C34.0914 56.364 34.5161 56.8027 34.8241 57.372C35.1321 57.932 35.2861 58.5807 35.2861 59.318C35.2861 59.3647 35.2814 59.416 35.2721 59.472C35.2721 59.5187 35.2721 59.57 35.2721 59.626H28.8741V58.884H34.7401L34.3481 59.178C34.3481 58.646 34.2314 58.1747 33.9981 57.764C33.7741 57.344 33.4661 57.0173 33.0741 56.784C32.6821 56.5507 32.2294 56.434 31.7161 56.434C31.2121 56.434 30.7594 56.5507 30.3581 56.784C29.9567 57.0173 29.6441 57.344 29.4201 57.764C29.1961 58.184 29.0841 58.6647 29.0841 59.206V59.36C29.0841 59.92 29.2054 60.4147 29.4481 60.844C29.7001 61.264 30.0454 61.5953 30.4841 61.838C30.9321 62.0713 31.4407 62.188 32.0101 62.188C32.4581 62.188 32.8734 62.1087 33.2561 61.95C33.6481 61.7913 33.9841 61.5487 34.2641 61.222L34.8241 61.866C34.4974 62.258 34.0867 62.5567 33.5921 62.762C33.1067 62.9673 32.5701 63.07 31.9821 63.07ZM37.9673 63V52.612H38.9613V63H37.9673ZM45.3811 63.07C44.6717 63.07 44.0324 62.9113 43.4631 62.594C42.9031 62.2673 42.4597 61.824 42.1331 61.264C41.8064 60.6947 41.6431 60.046 41.6431 59.318C41.6431 58.5807 41.8064 57.932 42.1331 57.372C42.4597 56.812 42.9031 56.3733 43.4631 56.056C44.0231 55.7387 44.6624 55.58 45.3811 55.58C46.1091 55.58 46.7531 55.7387 47.3131 56.056C47.8824 56.3733 48.3257 56.812 48.6431 57.372C48.9697 57.932 49.1331 58.5807 49.1331 59.318C49.1331 60.046 48.9697 60.6947 48.6431 61.264C48.3257 61.824 47.8824 62.2673 47.3131 62.594C46.7437 62.9113 46.0997 63.07 45.3811 63.07ZM45.3811 62.188C45.9131 62.188 46.3844 62.0713 46.7951 61.838C47.2057 61.5953 47.5277 61.2593 47.7611 60.83C48.0037 60.3913 48.1251 59.8873 48.1251 59.318C48.1251 58.7393 48.0037 58.2353 47.7611 57.806C47.5277 57.3767 47.2057 57.0453 46.7951 56.812C46.3844 56.5693 45.9177 56.448 45.3951 56.448C44.8724 56.448 44.4057 56.5693 43.9951 56.812C43.5844 57.0453 43.2577 57.3767 43.0151 57.806C42.7724 58.2353 42.6511 58.7393 42.6511 59.318C42.6511 59.8873 42.7724 60.3913 43.0151 60.83C43.2577 61.2593 43.5844 61.5953 43.9951 61.838C44.4057 62.0713 44.8677 62.188 45.3811 62.188ZM55.6144 63.07C54.9797 63.07 54.4057 62.9253 53.8924 62.636C53.3791 62.3373 52.9684 61.9127 52.6604 61.362C52.3617 60.802 52.2124 60.1207 52.2124 59.318C52.2124 58.5153 52.3617 57.8387 52.6604 57.288C52.9591 56.728 53.3651 56.3033 53.8784 56.014C54.3917 55.7247 54.9704 55.58 55.6144 55.58C56.3144 55.58 56.9397 55.7387 57.4904 56.056C58.0504 56.364 58.4891 56.8027 58.8064 57.372C59.1237 57.932 59.2824 58.5807 59.2824 59.318C59.2824 60.0647 59.1237 60.718 58.8064 61.278C58.4891 61.838 58.0504 62.2767 57.4904 62.594C56.9397 62.9113 56.3144 63.07 55.6144 63.07ZM51.8204 65.716V55.65H52.7724V57.862L52.6744 59.332L52.8144 60.816V65.716H51.8204ZM55.5444 62.188C56.0671 62.188 56.5337 62.0713 56.9444 61.838C57.3551 61.5953 57.6817 61.2593 57.9244 60.83C58.1671 60.3913 58.2884 59.8873 58.2884 59.318C58.2884 58.7487 58.1671 58.2493 57.9244 57.82C57.6817 57.3907 57.3551 57.0547 56.9444 56.812C56.5337 56.5693 56.0671 56.448 55.5444 56.448C55.0217 56.448 54.5504 56.5693 54.1304 56.812C53.7197 57.0547 53.3931 57.3907 53.1504 57.82C52.9171 58.2493 52.8004 58.7487 52.8004 59.318C52.8004 59.8873 52.9171 60.3913 53.1504 60.83C53.3931 61.2593 53.7197 61.5953 54.1304 61.838C54.5504 62.0713 55.0217 62.188 55.5444 62.188ZM71.1507 55.58C71.748 55.58 72.266 55.6967 72.7047 55.93C73.1527 56.154 73.498 56.4993 73.7407 56.966C73.9927 57.4327 74.1187 58.0207 74.1187 58.73V63H73.1247V58.828C73.1247 58.0533 72.938 57.47 72.5647 57.078C72.2007 56.6767 71.6827 56.476 71.0107 56.476C70.5067 56.476 70.068 56.5833 69.6947 56.798C69.3307 57.0033 69.046 57.3067 68.8407 57.708C68.6447 58.1 68.5467 58.576 68.5467 59.136V63H67.5527V58.828C67.5527 58.0533 67.366 57.47 66.9927 57.078C66.6194 56.6767 66.0967 56.476 65.4247 56.476C64.93 56.476 64.496 56.5833 64.1227 56.798C63.7494 57.0033 63.46 57.3067 63.2547 57.708C63.0587 58.1 62.9607 58.576 62.9607 59.136V63H61.9667V55.65H62.9187V57.638L62.7647 57.288C62.9887 56.756 63.348 56.3407 63.8427 56.042C64.3467 55.734 64.9394 55.58 65.6207 55.58C66.3394 55.58 66.9507 55.762 67.4547 56.126C67.9587 56.4807 68.2854 57.0173 68.4347 57.736L68.0427 57.582C68.2574 56.9847 68.6354 56.504 69.1767 56.14C69.7274 55.7667 70.3854 55.58 71.1507 55.58ZM80.5943 63.07C79.829 63.07 79.157 62.9113 78.5783 62.594C77.9997 62.2673 77.547 61.824 77.2203 61.264C76.8937 60.6947 76.7303 60.046 76.7303 59.318C76.7303 58.59 76.8843 57.946 77.1923 57.386C77.5097 56.826 77.939 56.3873 78.4803 56.07C79.031 55.7433 79.647 55.58 80.3283 55.58C81.019 55.58 81.6303 55.7387 82.1623 56.056C82.7037 56.364 83.1283 56.8027 83.4363 57.372C83.7443 57.932 83.8983 58.5807 83.8983 59.318C83.8983 59.3647 83.8937 59.416 83.8843 59.472C83.8843 59.5187 83.8843 59.57 83.8843 59.626H77.4863V58.884H83.3523L82.9603 59.178C82.9603 58.646 82.8437 58.1747 82.6103 57.764C82.3863 57.344 82.0783 57.0173 81.6863 56.784C81.2943 56.5507 80.8417 56.434 80.3283 56.434C79.8243 56.434 79.3717 56.5507 78.9703 56.784C78.569 57.0173 78.2563 57.344 78.0323 57.764C77.8083 58.184 77.6963 58.6647 77.6963 59.206V59.36C77.6963 59.92 77.8177 60.4147 78.0603 60.844C78.3123 61.264 78.6577 61.5953 79.0963 61.838C79.5443 62.0713 80.053 62.188 80.6223 62.188C81.0703 62.188 81.4857 62.1087 81.8683 61.95C82.2603 61.7913 82.5963 61.5487 82.8763 61.222L83.4363 61.866C83.1097 62.258 82.699 62.5567 82.2043 62.762C81.719 62.9673 81.1823 63.07 80.5943 63.07ZM90.3316 55.58C90.9289 55.58 91.4516 55.6967 91.8996 55.93C92.3569 56.154 92.7116 56.4993 92.9636 56.966C93.2249 57.4327 93.3556 58.0207 93.3556 58.73V63H92.3616V58.828C92.3616 58.0533 92.1656 57.47 91.7736 57.078C91.3909 56.6767 90.8496 56.476 90.1496 56.476C89.6269 56.476 89.1696 56.5833 88.7776 56.798C88.3949 57.0033 88.0962 57.3067 87.8816 57.708C87.6762 58.1 87.5736 58.576 87.5736 59.136V63H86.5796V55.65H87.5316V57.666L87.3776 57.288C87.6109 56.756 87.9842 56.3407 88.4976 56.042C89.0109 55.734 89.6222 55.58 90.3316 55.58ZM99.0225 63.07C98.3318 63.07 97.7998 62.8833 97.4265 62.51C97.0532 62.1367 96.8665 61.6093 96.8665 60.928V54.026H97.8605V60.872C97.8605 61.3013 97.9678 61.6327 98.1825 61.866C98.4065 62.0993 98.7238 62.216 99.1345 62.216C99.5732 62.216 99.9372 62.09 100.227 61.838L100.577 62.552C100.381 62.7293 100.143 62.86 99.8625 62.944C99.5918 63.028 99.3118 63.07 99.0225 63.07ZM95.5505 56.476V55.65H100.101V56.476H95.5505Z" fill="white"/>
</svg>
